<svg width="21" height="19" viewBox="0 0 21 19" fill="none" xmlns="http://www.w3.org/2000/svg">
<mask id="mask0_134_90" style="mask-type:alpha" maskUnits="userSpaceOnUse" x="0" y="0" width="21" height="19">
<rect width="21" height="19" fill="#D9D9D9"/>
</mask>
<g mask="url(#mask0_134_90)">
<path d="M17.15 16.625L11.6375 11.6375C11.2 11.9542 10.6969 12.2049 10.1281 12.3896C9.55937 12.5743 8.95417 12.6667 8.3125 12.6667C6.72292 12.6667 5.3776 12.1686 4.27656 11.1724C3.17552 10.1762 2.625 8.95903 2.625 7.52083C2.625 6.08264 3.17552 4.86545 4.27656 3.86927C5.3776 2.87309 6.72292 2.375 8.3125 2.375C9.90208 2.375 11.2474 2.87309 12.3484 3.86927C13.4495 4.86545 14 6.08264 14 7.52083C14 8.10139 13.8979 8.64896 13.6938 9.16354C13.4896 9.67812 13.2125 10.1333 12.8625 10.5292L18.375 15.5167L17.15 16.625ZM8.3125 11.0833C9.40625 11.0833 10.3359 10.737 11.1016 10.0443C11.8672 9.35156 12.25 8.51042 12.25 7.52083C12.25 6.53125 11.8672 5.6901 11.1016 4.9974C10.3359 4.30469 9.40625 3.95833 8.3125 3.95833C7.21875 3.95833 6.28906 4.30469 5.52344 4.9974C4.75781 5.6901 4.375 6.53125 4.375 7.52083C4.375 8.51042 4.75781 9.35156 5.52344 10.0443C6.28906 10.737 7.21875 11.0833 8.3125 11.0833Z" fill="#F7F3F3"/>
</g>
</svg>
