<svg width="46" height="40" viewBox="0 0 46 40" fill="none" xmlns="http://www.w3.org/2000/svg">
<mask id="mask0_134_76" style="mask-type:alpha" maskUnits="userSpaceOnUse" x="0" y="0" width="46" height="40">
<rect width="46" height="40" fill="#D9D9D9"/>
</mask>
<g mask="url(#mask0_134_76)">
<path d="M21.0834 28.3336H24.9167V21.667H32.5834V18.3336H24.9167V11.667H21.0834V18.3336H13.4167V21.667H21.0834V28.3336ZM23 36.667C20.3487 36.667 17.857 36.2295 15.525 35.3545C13.1931 34.4795 11.1646 33.292 9.43962 31.792C7.71462 30.292 6.349 28.5281 5.34275 26.5003C4.3365 24.4725 3.83337 22.3058 3.83337 20.0003C3.83337 17.6947 4.3365 15.5281 5.34275 13.5003C6.349 11.4725 7.71462 9.70862 9.43962 8.20862C11.1646 6.70862 13.1931 5.52112 15.525 4.64612C17.857 3.77112 20.3487 3.33362 23 3.33362C25.6514 3.33362 28.1431 3.77112 30.475 4.64612C32.807 5.52112 34.8355 6.70862 36.5605 8.20862C38.2855 9.70862 39.6511 11.4725 40.6573 13.5003C41.6636 15.5281 42.1667 17.6947 42.1667 20.0003C42.1667 22.3058 41.6636 24.4725 40.6573 26.5003C39.6511 28.5281 38.2855 30.292 36.5605 31.792C34.8355 33.292 32.807 34.4795 30.475 35.3545C28.1431 36.2295 25.6514 36.667 23 36.667ZM23 33.3336C27.2806 33.3336 30.9063 32.042 33.8771 29.4586C36.848 26.8753 38.3334 23.7225 38.3334 20.0003C38.3334 16.2781 36.848 13.1253 33.8771 10.542C30.9063 7.95862 27.2806 6.66695 23 6.66695C18.7195 6.66695 15.0938 7.95862 12.123 10.542C9.15212 13.1253 7.66671 16.2781 7.66671 20.0003C7.66671 23.7225 9.15212 26.8753 12.123 29.4586C15.0938 32.042 18.7195 33.3336 23 33.3336Z" fill="#4DC69B"/>
</g>
</svg>
