<svg width="327" height="577" viewBox="0 0 327 577" fill="none" xmlns="http://www.w3.org/2000/svg">
<g clip-path="url(#clip0_187_5)">
<rect width="327" height="577" fill="white"/>
<path d="M-17 119.257C-17 114.05 -17 111.447 -16.0087 109.389C-15.1721 107.653 -13.8517 106.196 -12.2063 105.192C-10.2566 104.003 -7.66577 103.747 -2.48419 103.235L334.436 69.9212C337.864 69.5822 339.579 69.4127 341.159 69.7707C342.499 70.0743 343.763 70.6508 344.87 71.4644C346.176 72.4238 347.171 73.8298 349.162 76.6417L366.041 100.49C367.152 102.059 367.707 102.843 368.098 103.7C368.43 104.429 368.674 105.196 368.824 105.983C369 106.909 369 107.87 369 109.791V345.982C369 353.508 369 357.271 367.403 359.746C366.063 361.822 364.003 363.328 361.619 363.975C358.776 364.747 355.19 363.606 348.019 361.324L81.3281 276.471C77.7806 275.343 76.0069 274.778 74.2738 274.84C72.805 274.892 71.3658 275.267 70.0585 275.938C68.5159 276.73 67.2433 278.089 64.6979 280.805L10.8487 338.278C2.07642 347.64 -2.30972 352.321 -6.10749 352.662C-9.25761 352.944 -12.3556 351.719 -14.4613 349.36C-17 346.515 -17 340.1 -17 327.27V119.257Z" fill="#44C67F"/>
<path d="M-25 525.105C-25 523.397 -25 522.544 -24.8595 521.714C-24.7449 521.038 -24.561 520.375 -24.3106 519.736C-24.0037 518.953 -23.5638 518.221 -22.684 516.758L4.7757 471.083C6.99991 467.384 8.11202 465.534 9.69387 464.356C10.9763 463.401 12.469 462.768 14.0467 462.509C15.9929 462.19 18.096 462.675 22.3022 463.645L185.353 501.27L327.612 531.716C331.647 532.579 333.664 533.011 335.246 534.061C336.529 534.913 337.598 536.05 338.369 537.383C339.32 539.027 339.627 541.067 340.241 545.147L347.135 590.961C348.141 597.644 348.644 600.986 347.589 603.545C346.74 605.605 345.228 607.322 343.292 608.425C340.886 609.795 337.508 609.719 330.752 609.568L-9.1637 601.935C-14.8352 601.807 -17.671 601.744 -19.8156 600.565C-21.547 599.614 -22.9578 598.171 -23.87 596.419C-25 594.248 -25 591.412 -25 585.739V525.105Z" fill="#CA92DE"/>
</g>
<defs>
<clipPath id="clip0_187_5">
<rect width="327" height="577" fill="white"/>
</clipPath>
</defs>
</svg>
