<svg width="327" height="577" viewBox="0 0 327 577" fill="none" xmlns="http://www.w3.org/2000/svg">
<g clip-path="url(#clip0_187_5)">
<rect width="327" height="577" fill="white"/>
<path d="M-17 119.257C-17 114.05 -17 111.447 -16.0087 109.389C-15.1721 107.653 -13.8517 106.196 -12.2063 105.192C-10.2566 104.003 -7.66577 103.747 -2.48419 103.235L334.436 69.9212C337.864 69.5822 339.579 69.4127 341.159 69.7707C342.499 70.0743 343.763 70.6508 344.87 71.4644C346.176 72.4238 347.171 73.8298 349.162 76.6417L366.041 100.49C367.152 102.059 367.707 102.843 368.098 103.7C368.43 104.429 368.674 105.196 368.824 105.983C369 106.909 369 107.87 369 109.791V345.982C369 353.508 369 357.271 367.403 359.746C366.063 361.822 364.003 363.328 361.619 363.975C358.776 364.747 355.19 363.606 348.019 361.324L81.3281 276.471C77.7806 275.343 76.0069 274.778 74.2738 274.84C72.805 274.892 71.3658 275.267 70.0585 275.938C68.5159 276.73 67.2433 278.089 64.6979 280.805L10.8487 338.278C2.07642 347.64 -2.30972 352.321 -6.10749 352.662C-9.25761 352.944 -12.3556 351.719 -14.4613 349.36C-17 346.515 -17 340.1 -17 327.27V119.257Z" fill="#44C67F"/>
<path d="M-25 531.995C-25 530.179 -25 529.271 -24.8418 528.392C-24.7127 527.675 -24.5057 526.974 -24.2244 526.302C-23.8797 525.479 -23.3861 524.716 -22.3989 523.192L4.67168 481.377C6.90662 477.925 8.02408 476.199 9.56303 475.096C10.8114 474.201 12.2492 473.605 13.7649 473.356C15.6333 473.048 17.6439 473.479 21.6651 474.341L184.792 509.297L326.57 537.475C330.63 538.282 332.66 538.685 334.261 539.717C335.559 540.554 336.646 541.68 337.436 543.007C338.41 544.643 338.741 546.687 339.403 550.773L345.89 590.807C346.981 597.537 347.526 600.901 346.486 603.485C345.65 605.563 344.14 607.301 342.198 608.418C339.785 609.808 336.377 609.737 329.561 609.595L-9.13774 602.532C-14.8177 602.413 -17.6577 602.354 -19.806 601.177C-21.5402 600.226 -22.9537 598.783 -23.8677 597.029C-25 594.857 -25 592.016 -25 586.335V531.995Z" fill="#CA92DE"/>
</g>
<defs>
<clipPath id="clip0_187_5">
<rect width="327" height="577" fill="white"/>
</clipPath>
</defs>
</svg>
