<svg width="1280" height="832" viewBox="0 0 1280 832" fill="none" xmlns="http://www.w3.org/2000/svg">
<g clip-path="url(#clip0_248_2)">
<rect width="1280" height="832" fill="white"/>
<path d="M-1.28438 188.566C-0.824765 183.514 -0.594957 180.989 0.538446 179.059C1.49529 177.43 2.89406 176.105 4.57273 175.239C6.56116 174.212 9.09548 174.12 14.1641 173.935L1188.38 131.223C1191.31 131.116 1192.77 131.063 1194.11 130.63C1195.24 130.261 1196.29 129.694 1197.22 128.955C1198.32 128.084 1199.18 126.894 1200.88 124.512L1267.82 31.0986C1277.3 17.883 1282.03 11.2751 1286.08 10.5836C1289.43 10.0123 1292.84 11.178 1295.13 13.6792C1297.91 16.7074 1297.61 24.831 1297 41.0784L1280.63 478.782C1280.41 484.734 1280.3 487.71 1279.02 489.884C1277.94 491.716 1276.31 493.156 1274.36 493.997C1272.04 494.997 1269.08 494.738 1263.14 494.22L298.705 410.054C297.122 409.916 296.331 409.847 295.549 409.901C294.884 409.947 294.225 410.06 293.581 410.237C292.826 410.446 292.103 410.774 290.656 411.43L-9.8112 547.674C-18.1742 551.466 -22.3558 553.362 -25.5779 552.672C-28.2684 552.096 -30.6027 550.437 -32.0312 548.085C-33.7419 545.269 -33.3258 540.697 -32.4937 531.552L-1.28438 188.566Z" fill="#44C67F"/>
</g>
<defs>
<clipPath id="clip0_248_2">
<rect width="1280" height="832" fill="white"/>
</clipPath>
</defs>
</svg>
