<svg width="1280" height="109" viewBox="0 0 1280 109" fill="none" xmlns="http://www.w3.org/2000/svg">
<path d="M-20 64.0574C-20 60.5071 -20 58.7319 -19.4589 57.1546C-19.0192 55.873 -18.3237 54.6941 -17.4145 53.6894C-16.2956 52.453 -14.7418 51.5946 -11.6343 49.8777L74.5529 2.25936C76.1054 1.40157 76.8817 0.972675 77.707 0.689352C78.3804 0.458184 79.0766 0.299594 79.7837 0.216278C80.6503 0.114165 81.5357 0.164505 83.3067 0.265186L743.456 37.7963L1276.93 68.5292C1280.66 68.7443 1282.53 68.8519 1284.13 69.5367C1285.44 70.0928 1286.61 70.9198 1287.57 71.9627C1288.75 73.247 1289.48 74.9707 1290.93 78.4181L1314.46 134.34C1317.71 142.065 1319.34 145.927 1318.67 149.018C1318.13 151.493 1316.67 153.672 1314.59 155.113C1311.99 156.914 1307.8 156.884 1299.41 156.823L-3.91643 147.46C-9.66812 147.418 -12.544 147.398 -14.7231 146.23C-16.4818 145.288 -17.9183 143.841 -18.8481 142.075C-20 139.888 -20 137.012 -20 131.26V64.0574Z" fill="#CA92DE"/>
</svg>
