<svg width="320" height="474" viewBox="0 0 320 474" fill="none" xmlns="http://www.w3.org/2000/svg">
<path d="M88.5 234L113.235 168.339C114.261 165.617 114.773 164.256 115.601 163.137C116.303 162.187 117.169 161.369 118.157 160.721C119.32 159.958 120.707 159.523 123.482 158.653L139.147 153.738C140.036 153.459 140.481 153.32 140.935 153.222C141.321 153.139 141.712 153.08 142.106 153.043C142.568 153 143.034 153 143.966 153L216.5 153L255.78 153C258.645 153 260.077 153 261.399 152.63C262.521 152.316 263.58 151.809 264.527 151.13C265.643 150.331 266.54 149.214 268.334 146.981L312.824 91.5781C322.117 80.0056 326.763 74.2193 330.731 73.6897C334.013 73.2516 337.3 74.4668 339.508 76.935C342.176 79.9186 341.94 87.3358 341.469 102.17L336.704 252.087C336.628 254.481 336.59 255.678 336.287 256.8C336.031 257.754 335.634 258.664 335.11 259.502C334.494 260.487 333.643 261.33 331.941 263.015L288.557 305.977C287.222 307.3 286.554 307.961 285.791 308.479C285.142 308.92 284.444 309.283 283.71 309.56C282.847 309.886 281.922 310.052 280.073 310.384L152.231 333.33C150.825 333.583 150.122 333.709 149.451 333.93C148.88 334.119 148.327 334.358 147.798 334.646C147.178 334.984 146.605 335.411 145.46 336.264L-5.96767 449.029C-28.7653 466.006 -40.1641 474.495 -44.6458 473.487C-48.3204 472.661 -51.2192 469.841 -52.1455 466.19C-53.2751 461.737 -45.1017 450.111 -28.7548 426.857L48.4762 316.996C48.7674 316.581 48.9131 316.374 49.0478 316.16C49.1627 315.978 49.2717 315.792 49.3746 315.602C49.4952 315.38 49.6047 315.152 49.8236 314.695L88.5 234Z" fill="#44C67F"/>
</svg>
