<svg width="45" height="42" viewBox="0 0 45 42" fill="none" xmlns="http://www.w3.org/2000/svg">
<mask id="mask0_138_2" style="mask-type:alpha" maskUnits="userSpaceOnUse" x="0" y="0" width="45" height="42">
<rect width="45" height="42" rx="5" fill="#D9D9D9"/>
</mask>
<g mask="url(#mask0_138_2)">
<path d="M12.5 36.75C9.73858 36.75 7.5 34.5114 7.5 31.75V23.1324C7.5 21.9645 6.18034 21.2846 5.22934 21.9626C4.60942 22.4046 3.75234 22.2862 3.27544 21.6928L3.06479 21.4306C2.41909 20.6271 2.58233 19.4459 3.42177 18.8476L19.598 7.31833C21.3347 6.08055 23.6653 6.08055 25.402 7.31833L41.5755 18.8456C42.4144 19.4435 42.5732 20.626 41.9217 21.424L41.7241 21.6661C41.2454 22.2526 40.3952 22.3704 39.775 21.9362C38.8167 21.2654 37.5 21.951 37.5 23.1207V31.75C37.5 34.5114 35.2614 36.75 32.5 36.75H12.5ZM11.25 28.25C11.25 31.0114 13.4886 33.25 16.25 33.25H28.75C31.5114 33.25 33.75 31.0114 33.75 28.25V20.2536C33.75 18.6358 32.9672 17.1179 31.6491 16.1799L25.3991 11.732C23.6637 10.4969 21.3363 10.4969 19.6009 11.732L13.3509 16.1799C12.0328 17.1179 11.25 18.6358 11.25 20.2536V28.25ZM15 26.25C14.4688 26.25 14.0234 26.0823 13.6641 25.7469C13.3047 25.4115 13.125 24.9958 13.125 24.5C13.125 24.0042 13.3047 23.5885 13.6641 23.2531C14.0234 22.9177 14.4688 22.75 15 22.75C15.5312 22.75 15.9766 22.9177 16.3359 23.2531C16.6953 23.5885 16.875 24.0042 16.875 24.5C16.875 24.9958 16.6953 25.4115 16.3359 25.7469C15.9766 26.0823 15.5312 26.25 15 26.25ZM22.5 26.25C21.9688 26.25 21.5234 26.0823 21.1641 25.7469C20.8047 25.4115 20.625 24.9958 20.625 24.5C20.625 24.0042 20.8047 23.5885 21.1641 23.2531C21.5234 22.9177 21.9688 22.75 22.5 22.75C23.0312 22.75 23.4766 22.9177 23.8359 23.2531C24.1953 23.5885 24.375 24.0042 24.375 24.5C24.375 24.9958 24.1953 25.4115 23.8359 25.7469C23.4766 26.0823 23.0312 26.25 22.5 26.25ZM30 26.25C29.4688 26.25 29.0234 26.0823 28.6641 25.7469C28.3047 25.4115 28.125 24.9958 28.125 24.5C28.125 24.0042 28.3047 23.5885 28.6641 23.2531C29.0234 22.9177 29.4688 22.75 30 22.75C30.5312 22.75 30.9766 22.9177 31.3359 23.2531C31.6953 23.5885 31.875 24.0042 31.875 24.5C31.875 24.9958 31.6953 25.4115 31.3359 25.7469C30.9766 26.0823 30.5312 26.25 30 26.25Z" fill="#FAFAFA"/>
</g>
</svg>
