<svg width="240" height="94" viewBox="0 0 240 94" fill="none" xmlns="http://www.w3.org/2000/svg">
<path d="M19.5298 46V22.7273H28.2571C30.045 22.7273 31.545 23.0379 32.7571 23.6591C33.9768 24.2803 34.8973 25.1515 35.5185 26.2727C36.1473 27.3864 36.4616 28.6856 36.4616 30.1705C36.4616 31.6629 36.1435 32.9583 35.5071 34.0568C34.8783 35.1477 33.9503 35.9924 32.723 36.5909C31.4957 37.1818 29.9882 37.4773 28.2003 37.4773H21.9844V33.9773H27.6321C28.6776 33.9773 29.5336 33.8333 30.2003 33.5455C30.867 33.25 31.3594 32.822 31.6776 32.2614C32.0033 31.6932 32.1662 30.9962 32.1662 30.1705C32.1662 29.3447 32.0033 28.6402 31.6776 28.0568C31.3518 27.4659 30.8556 27.0189 30.1889 26.7159C29.5223 26.4053 28.6624 26.25 27.6094 26.25H23.7457V46H19.5298ZM31.5526 35.4545L37.3139 46H32.6094L26.9503 35.4545H31.5526ZM47.6378 46.3409C45.8878 46.3409 44.3764 45.9773 43.1037 45.25C41.8385 44.5152 40.8651 43.4773 40.1832 42.1364C39.5014 40.7879 39.1605 39.2008 39.1605 37.375C39.1605 35.5795 39.5014 34.0038 40.1832 32.6477C40.8726 31.2841 41.8348 30.2235 43.0696 29.4659C44.3045 28.7008 45.7552 28.3182 47.4219 28.3182C48.4976 28.3182 49.5128 28.4924 50.4673 28.8409C51.4295 29.1818 52.2779 29.7121 53.0128 30.4318C53.7552 31.1515 54.3385 32.0682 54.7628 33.1818C55.187 34.2879 55.3991 35.6061 55.3991 37.1364V38.3977H41.0923V35.625H51.456C51.4484 34.8371 51.2779 34.1364 50.9446 33.5227C50.6113 32.9015 50.1454 32.4129 49.5469 32.0568C48.956 31.7008 48.2666 31.5227 47.4787 31.5227C46.6378 31.5227 45.8991 31.7273 45.2628 32.1364C44.6264 32.5379 44.1302 33.0682 43.7741 33.7273C43.4257 34.3788 43.2476 35.0947 43.2401 35.875V38.2955C43.2401 39.3106 43.4257 40.1818 43.7969 40.9091C44.1681 41.6288 44.687 42.1818 45.3537 42.5682C46.0204 42.947 46.8007 43.1364 47.6946 43.1364C48.2931 43.1364 48.8348 43.053 49.3196 42.8864C49.8045 42.7121 50.2249 42.4583 50.581 42.125C50.937 41.7917 51.206 41.3788 51.3878 40.8864L55.2287 41.3182C54.9863 42.3333 54.5241 43.2197 53.8423 43.9773C53.1681 44.7273 52.3045 45.3106 51.2514 45.7273C50.1984 46.1364 48.9938 46.3409 47.6378 46.3409ZM70.0043 38.6591V28.5455H74.1179V46H70.1293V42.8977H69.9474C69.5535 43.875 68.9058 44.6742 68.0043 45.2955C67.1103 45.9167 66.008 46.2273 64.6974 46.2273C63.5535 46.2273 62.5421 45.9735 61.6634 45.4659C60.7921 44.9508 60.1103 44.2045 59.6179 43.2273C59.1255 42.2424 58.8793 41.053 58.8793 39.6591V28.5455H62.9929V39.0227C62.9929 40.1288 63.2959 41.0076 63.902 41.6591C64.508 42.3106 65.3035 42.6364 66.2884 42.6364C66.8944 42.6364 67.4815 42.4886 68.0497 42.1932C68.6179 41.8977 69.0838 41.4583 69.4474 40.875C69.8187 40.2841 70.0043 39.5455 70.0043 38.6591ZM92.1435 33.1591L88.3935 33.5682C88.2874 33.1894 88.1018 32.8333 87.8366 32.5C87.5791 32.1667 87.2306 31.8977 86.7912 31.6932C86.3518 31.4886 85.8139 31.3864 85.1776 31.3864C84.3215 31.3864 83.6018 31.572 83.0185 31.9432C82.4427 32.3144 82.1586 32.7955 82.1662 33.3864C82.1586 33.8939 82.3442 34.3068 82.723 34.625C83.1094 34.9432 83.7457 35.2045 84.6321 35.4091L87.6094 36.0455C89.2609 36.4015 90.4882 36.9659 91.2912 37.7386C92.1018 38.5114 92.5109 39.5227 92.5185 40.7727C92.5109 41.8712 92.1889 42.8409 91.5526 43.6818C90.9238 44.5152 90.0488 45.1667 88.9276 45.6364C87.8063 46.1061 86.5185 46.3409 85.0639 46.3409C82.9276 46.3409 81.2079 45.8939 79.9048 45C78.6018 44.0985 77.8253 42.8447 77.5753 41.2386L81.5866 40.8523C81.7685 41.6402 82.1548 42.2348 82.7457 42.6364C83.3366 43.0379 84.1056 43.2386 85.0526 43.2386C86.0298 43.2386 86.8139 43.0379 87.4048 42.6364C88.0033 42.2348 88.3026 41.7386 88.3026 41.1477C88.3026 40.6477 88.1094 40.2348 87.723 39.9091C87.3442 39.5833 86.7533 39.3333 85.9503 39.1591L82.973 38.5341C81.2988 38.1856 80.0601 37.5985 79.2571 36.7727C78.4541 35.9394 78.0563 34.8864 78.0639 33.6136C78.0563 32.5379 78.348 31.6061 78.9389 30.8182C79.5374 30.0227 80.367 29.4091 81.4276 28.9773C82.4957 28.5379 83.7268 28.3182 85.1207 28.3182C87.1662 28.3182 88.776 28.7538 89.9503 29.625C91.1321 30.4962 91.8632 31.6742 92.1435 33.1591ZM103.638 46.3409C101.888 46.3409 100.376 45.9773 99.1037 45.25C97.8385 44.5152 96.8651 43.4773 96.1832 42.1364C95.5014 40.7879 95.1605 39.2008 95.1605 37.375C95.1605 35.5795 95.5014 34.0038 96.1832 32.6477C96.8726 31.2841 97.8348 30.2235 99.0696 29.4659C100.304 28.7008 101.755 28.3182 103.422 28.3182C104.498 28.3182 105.513 28.4924 106.467 28.8409C107.429 29.1818 108.278 29.7121 109.013 30.4318C109.755 31.1515 110.339 32.0682 110.763 33.1818C111.187 34.2879 111.399 35.6061 111.399 37.1364V38.3977H97.0923V35.625H107.456C107.448 34.8371 107.278 34.1364 106.945 33.5227C106.611 32.9015 106.145 32.4129 105.547 32.0568C104.956 31.7008 104.267 31.5227 103.479 31.5227C102.638 31.5227 101.899 31.7273 101.263 32.1364C100.626 32.5379 100.13 33.0682 99.7741 33.7273C99.4257 34.3788 99.2476 35.0947 99.2401 35.875V38.2955C99.2401 39.3106 99.4257 40.1818 99.7969 40.9091C100.168 41.6288 100.687 42.1818 101.354 42.5682C102.02 42.947 102.801 43.1364 103.695 43.1364C104.293 43.1364 104.835 43.053 105.32 42.8864C105.804 42.7121 106.225 42.4583 106.581 42.125C106.937 41.7917 107.206 41.3788 107.388 40.8864L111.229 41.3182C110.986 42.3333 110.524 43.2197 109.842 43.9773C109.168 44.7273 108.304 45.3106 107.251 45.7273C106.198 46.1364 104.994 46.3409 103.638 46.3409Z" fill="#1A1A19"/>
<mask id="mask0_138_75" style="mask-type:alpha" maskUnits="userSpaceOnUse" x="57" y="4" width="31" height="33">
<rect x="57" y="4" width="31" height="33" fill="#D9D9D9"/>
</mask>
<g mask="url(#mask0_138_75)">
<path d="M71.2083 32.875V21.9094C69.8306 21.9094 68.5066 21.6286 67.2365 21.0672C65.9663 20.5057 64.8469 19.7094 63.8781 18.6781C62.9094 17.6469 62.1667 16.4552 61.65 15.1031C61.1333 13.751 60.875 12.3417 60.875 10.875V8.125H63.4583C64.8146 8.125 66.1278 8.40573 67.3979 8.96719C68.6681 9.52865 69.7875 10.325 70.7562 11.3563C71.4236 12.0667 71.978 12.8458 72.4193 13.6938C72.8606 14.5417 73.1997 15.4469 73.4365 16.4094C73.5441 16.249 73.6625 16.0943 73.7917 15.9453C73.9208 15.7964 74.0608 15.6417 74.2115 15.4812C75.1802 14.45 76.2997 13.6536 77.5698 13.0922C78.8399 12.5307 80.1639 12.25 81.5417 12.25H84.125V15C84.125 16.4667 83.8613 17.876 83.3339 19.2281C82.8064 20.5802 82.0583 21.7719 81.0896 22.8031C80.1208 23.8344 79.0068 24.625 77.7474 25.175C76.488 25.725 75.1694 26 73.7917 26V32.875H71.2083ZM71.2083 19.125C71.2083 18.025 71.0092 16.9766 70.6109 15.9797C70.2127 14.9828 69.6476 14.0948 68.9156 13.3156C68.1837 12.5365 67.3495 11.9349 66.413 11.5109C65.4766 11.087 64.4917 10.875 63.4583 10.875C63.4583 11.975 63.6521 13.0292 64.0396 14.0375C64.4271 15.0458 64.9868 15.9396 65.7188 16.7188C66.4507 17.4979 67.2903 18.0938 68.2375 18.5063C69.1847 18.9187 70.175 19.125 71.2083 19.125ZM73.7917 23.25C74.825 23.25 75.8099 23.0437 76.7464 22.6313C77.6828 22.2188 78.517 21.6229 79.249 20.8438C79.9809 20.0646 80.546 19.1708 80.9443 18.1625C81.3425 17.1542 81.5417 16.1 81.5417 15C80.5083 15 79.5181 15.212 78.5708 15.6359C77.6236 16.0599 76.784 16.6615 76.0521 17.4406C75.3201 18.2198 74.7604 19.1078 74.3729 20.1047C73.9854 21.1016 73.7917 22.15 73.7917 23.25Z" fill="#1C1B1F"/>
</g>
</svg>
