<svg width="39" height="35" viewBox="0 0 39 35" fill="none" xmlns="http://www.w3.org/2000/svg">
<mask id="mask0_134_91" style="mask-type:alpha" maskUnits="userSpaceOnUse" x="0" y="0" width="39" height="35">
<rect width="39" height="35" fill="#D9D9D9"/>
</mask>
<g mask="url(#mask0_134_91)">
<path d="M25.1974 35.0497C23.541 35.0497 21.9808 34.8305 20.5167 34.3921C19.0526 33.9537 17.7142 33.3337 16.5015 32.532L14.0169 34.5988C13.6916 34.8743 13.2775 35.0121 12.7747 35.0121C12.2718 35.0121 11.8578 34.8743 11.5324 34.5988C11.207 34.3232 11.0444 33.9725 11.0444 33.5466C11.0444 33.1207 11.207 32.77 11.5324 32.4944L13.9726 30.4277C13.0261 29.4005 12.294 28.2607 11.7764 27.0081C11.2588 25.7555 11 24.4278 11 23.0249C11 19.6679 12.3754 16.8245 15.1261 14.4947C17.8769 12.1649 21.2339 11 25.1974 11H39.3947V23.0249C39.3947 26.3818 38.0194 29.2252 35.2686 31.555C32.5179 33.8848 29.1608 35.0497 25.1974 35.0497ZM25.1974 32.0435C28.1552 32.0435 30.6693 31.1667 32.7397 29.4131C34.8102 27.6594 35.8454 25.53 35.8454 23.0249V14.0062H25.1974C22.2396 14.0062 19.7255 14.883 17.655 16.6367C15.5846 18.3903 14.5493 20.5197 14.5493 23.0249C14.5493 24.0019 14.7268 24.9351 15.0817 25.8244C15.4367 26.7137 15.9247 27.5216 16.5458 28.2481L25.7298 20.4696C26.0551 20.194 26.4692 20.0562 26.972 20.0562C27.4749 20.0562 27.889 20.194 28.2143 20.4696C28.5692 20.7702 28.7467 21.1272 28.7467 21.5405C28.7467 21.9539 28.5692 22.3109 28.2143 22.6115L19.0304 30.3901C19.8881 30.9162 20.842 31.3233 21.892 31.6114C22.9421 31.8994 24.0438 32.0435 25.1974 32.0435Z" fill="#4DC69B"/>
</g>
</svg>
