<svg width="320" height="89" viewBox="0 0 320 89" fill="none" xmlns="http://www.w3.org/2000/svg">
<path d="M-7 38.3905C-7 36.3407 -7 35.3159 -6.8008 34.3328C-6.63836 33.5312 -6.37817 32.7525 -6.02607 32.0142C-5.59431 31.1089 -4.97821 30.2899 -3.74601 28.6518L12.0895 7.60098C14.214 4.77682 15.2762 3.36474 16.65 2.4315C17.7664 1.67318 19.0246 1.14866 20.349 0.889536C21.979 0.570639 23.7297 0.810118 27.2311 1.28908L185 22.8704L309.999 40.1966C314.29 40.7914 316.435 41.0888 318.144 42.0859C319.529 42.8942 320.699 44.0236 321.556 45.379C322.613 47.051 322.986 49.1846 323.732 53.4518L327.619 75.6719C328.803 82.442 329.395 85.827 328.376 88.4346C327.555 90.5318 326.051 92.2908 324.107 93.4268C321.689 94.8391 318.253 94.7797 311.381 94.6609L8.92 89.4325C3.2213 89.334 0.371944 89.2847 -1.78436 88.1099C-3.52497 87.1615 -4.94447 85.7173 -5.8626 83.9605C-7 81.7843 -7 78.9345 -7 73.2349V38.3905Z" fill="#CA92DE"/>
</svg>
