<svg width="24" height="19" viewBox="0 0 24 19" fill="none" xmlns="http://www.w3.org/2000/svg">
<mask id="mask0_148_138" style="mask-type:alpha" maskUnits="userSpaceOnUse" x="0" y="0" width="24" height="19">
<rect width="24" height="19" fill="#D9D9D9"/>
</mask>
<g mask="url(#mask0_148_138)">
<path d="M9.2 7.28337L11.425 4.374L9.95 2.43442C9.75 2.17053 9.4625 2.03858 9.0875 2.03858C8.7125 2.03858 8.425 2.17053 8.225 2.43442L5.775 5.66046L9.2 7.28337ZM18.875 12.6667L16.65 9.73754L20.125 8.15421L21.725 10.2719C21.9083 10.4962 22.0083 10.7469 22.025 11.024C22.0417 11.3011 21.9667 11.5584 21.8 11.7959C21.6333 12.0598 21.3875 12.2709 21.0625 12.4292C20.7375 12.5875 20.3833 12.6667 20 12.6667H18.875ZM16 18.2084L12 15.0417L16 11.875V13.4584H20.75L19.3 15.7542C19.1167 16.0181 18.8667 16.2292 18.55 16.3875C18.2333 16.5459 17.8833 16.625 17.5 16.625H16V18.2084ZM6.325 16.625C5.99167 16.625 5.6875 16.5558 5.4125 16.4172C5.1375 16.2787 4.93333 16.0973 4.8 15.873C4.66667 15.6618 4.60417 15.4408 4.6125 15.2099C4.62083 14.979 4.7 14.7646 4.85 14.5667L5.7 13.4584H10V16.625H6.325ZM3.85 14.3688L2.225 11.7959C2.075 11.5584 2.00417 11.3044 2.0125 11.0339C2.02083 10.7634 2.11667 10.5094 2.3 10.2719L2.7 9.73754L1 8.92608L6.475 7.83754L7.85 12.1917L6.125 11.3605L3.85 14.3688ZM17.35 7.60004L11.875 6.5115L13.6 5.70004L10.475 1.58337H14C14.35 1.58337 14.6792 1.65264 14.9875 1.79119C15.2958 1.92973 15.5417 2.11775 15.725 2.35525L17.025 4.07712L18.725 3.24587L17.35 7.60004Z" fill="#CA92DE"/>
</g>
</svg>
