<svg width="47" height="40" viewBox="0 0 47 40" fill="none" xmlns="http://www.w3.org/2000/svg">
<mask id="mask0_134_72" style="mask-type:alpha" maskUnits="userSpaceOnUse" x="0" y="0" width="47" height="40">
<rect width="47" height="40" fill="#D9D9D9"/>
</mask>
<g mask="url(#mask0_134_72)">
<path d="M23.5 33.3327C21.6723 33.3327 19.9506 33.0896 18.3349 32.6035C16.7193 32.1174 15.2424 31.4299 13.9042 30.541L11.1625 32.8327C10.8035 33.1382 10.3466 33.291 9.79171 33.291C9.23685 33.291 8.7799 33.1382 8.42087 32.8327C8.06185 32.5271 7.88233 32.1382 7.88233 31.666C7.88233 31.1938 8.06185 30.8049 8.42087 30.4993L11.1136 28.2077C10.0691 27.0688 9.26133 25.8049 8.69014 24.416C8.11896 23.0271 7.83337 21.5549 7.83337 19.9993C7.83337 16.2771 9.35108 13.1243 12.3865 10.541C15.4219 7.95768 19.1264 6.66602 23.5 6.66602H39.1667V19.9993C39.1667 23.7216 37.649 26.8743 34.6136 29.4577C31.5782 32.041 27.8737 33.3327 23.5 33.3327ZM23.5 29.9993C26.7639 29.9993 29.5382 29.0271 31.823 27.0827C34.1077 25.1382 35.25 22.7771 35.25 19.9993V9.99935H23.5C20.2362 9.99935 17.4618 10.9716 15.1771 12.916C12.8924 14.8605 11.75 17.2216 11.75 19.9993C11.75 21.0827 11.9459 22.1174 12.3375 23.1035C12.7292 24.0896 13.2677 24.9855 13.9532 25.791L24.0875 17.166C24.4466 16.8605 24.9035 16.7077 25.4584 16.7077C26.0132 16.7077 26.4702 16.8605 26.8292 17.166C27.2209 17.4993 27.4167 17.8952 27.4167 18.3535C27.4167 18.8118 27.2209 19.2077 26.8292 19.541L16.6948 28.166C17.6414 28.7494 18.694 29.2007 19.8526 29.5202C21.0113 29.8396 22.2271 29.9993 23.5 29.9993Z" fill="#FAFAFA"/>
</g>
</svg>
